<svg width="119" height="21" viewBox="0 0 119 21" fill="none" xmlns="http://www.w3.org/2000/svg">
<path d="M5.71165 20.2397C4.64039 20.2397 3.68158 19.9645 2.83523 19.4141C1.98887 18.8636 1.32008 18.0646 0.828835 17.017C0.337595 15.9695 0.0919745 14.697 0.0919745 13.1996C0.0919745 11.6844 0.340554 10.406 0.837713 9.36435C1.34079 8.31676 2.01847 7.52663 2.87074 6.99396C3.72301 6.45537 4.67294 6.18608 5.72053 6.18608C6.51953 6.18608 7.17649 6.32221 7.69141 6.59446C8.20632 6.86079 8.6147 7.18336 8.91655 7.56214C9.2184 7.93501 9.45218 8.28717 9.6179 8.61861H9.75107V1.81818H12.9737V20H9.81321V17.8516H9.6179C9.45218 18.183 9.21248 18.5352 8.89879 18.908C8.58511 19.275 8.17081 19.5887 7.6559 19.8491C7.14098 20.1095 6.4929 20.2397 5.71165 20.2397ZM6.60831 17.603C7.28894 17.603 7.86896 17.4195 8.34837 17.0526C8.82777 16.6797 9.19176 16.1618 9.44034 15.4989C9.68892 14.8361 9.81321 14.0637 9.81321 13.1818C9.81321 12.3 9.68892 11.5335 9.44034 10.8825C9.19768 10.2314 8.83665 9.72538 8.35724 9.36435C7.88376 9.00331 7.30078 8.8228 6.60831 8.8228C5.89216 8.8228 5.29439 9.00923 4.81499 9.3821C4.33558 9.75497 3.97455 10.2699 3.73189 10.9268C3.48923 11.5838 3.3679 12.3355 3.3679 13.1818C3.3679 14.0341 3.48923 14.7946 3.73189 15.4634C3.98047 16.1263 4.34446 16.6501 4.82386 17.0348C5.30919 17.4136 5.904 17.603 6.60831 17.603ZM16.3983 20V6.36364H19.6121V20H16.3983ZM18.0141 4.42827C17.5051 4.42827 17.0671 4.25959 16.7002 3.92223C16.3332 3.57895 16.1498 3.16761 16.1498 2.68821C16.1498 2.20289 16.3332 1.79155 16.7002 1.45419C17.0671 1.11091 17.5051 0.939275 18.0141 0.939275C18.529 0.939275 18.967 1.11091 19.328 1.45419C19.695 1.79155 19.8785 2.20289 19.8785 2.68821C19.8785 3.16761 19.695 3.57895 19.328 3.92223C18.967 4.25959 18.529 4.42827 18.0141 4.42827ZM33.6946 9.96804L30.7649 10.2876C30.6821 9.99171 30.5371 9.71354 30.3299 9.45312C30.1287 9.19271 29.8564 8.9826 29.5131 8.8228C29.1699 8.663 28.7496 8.5831 28.2525 8.5831C27.5837 8.5831 27.0214 8.7281 26.5657 9.01811C26.1159 9.30812 25.8939 9.68395 25.8999 10.1456C25.8939 10.5421 26.0389 10.8647 26.3349 11.1133C26.6367 11.3619 27.1339 11.5661 27.8263 11.7259L30.1523 12.223C31.4426 12.5012 32.4014 12.9421 33.0288 13.5458C33.6621 14.1495 33.9817 14.9396 33.9876 15.9162C33.9817 16.7744 33.7301 17.532 33.233 18.1889C32.7417 18.84 32.0581 19.349 31.1822 19.7159C30.3062 20.0829 29.3001 20.2663 28.1637 20.2663C26.4947 20.2663 25.1512 19.9171 24.1332 19.2188C23.1152 18.5144 22.5085 17.5349 22.3132 16.2802L25.4471 15.9783C25.5891 16.5939 25.891 17.0585 26.3526 17.3722C26.8143 17.6858 27.415 17.8427 28.1548 17.8427C28.9183 17.8427 29.5309 17.6858 29.9925 17.3722C30.4601 17.0585 30.6939 16.6708 30.6939 16.2092C30.6939 15.8185 30.543 15.496 30.2411 15.2415C29.9452 14.987 29.4835 14.7917 28.8562 14.6555L26.5302 14.1673C25.2222 13.895 24.2545 13.4363 23.6271 12.7912C22.9998 12.1402 22.689 11.3175 22.695 10.3232C22.689 9.48272 22.9169 8.75473 23.3786 8.1392C23.8461 7.51776 24.4942 7.03835 25.3228 6.70099C26.1573 6.35772 27.1191 6.18608 28.2081 6.18608C29.8061 6.18608 31.0638 6.5264 31.9812 7.20703C32.9045 7.88767 33.4756 8.808 33.6946 9.96804ZM42.5858 20.2663C41.2245 20.2663 40.0556 19.9674 39.079 19.3697C38.1084 18.7719 37.3597 17.9463 36.8329 16.8928C36.3121 15.8333 36.0517 14.6141 36.0517 13.2351C36.0517 11.8501 36.318 10.628 36.8507 9.56854C37.3833 8.5032 38.135 7.6746 39.1056 7.08274C40.0822 6.48497 41.2363 6.18608 42.568 6.18608C43.6748 6.18608 44.6543 6.39027 45.5066 6.79865C46.3648 7.20111 47.0484 7.77225 47.5574 8.51207C48.0663 9.24598 48.3564 10.1042 48.4274 11.0866H45.3556C45.2314 10.4297 44.9354 9.88222 44.4679 9.44425C44.0062 9.00035 43.3877 8.77841 42.6124 8.77841C41.9554 8.77841 41.3784 8.95597 40.8812 9.31108C40.3841 9.66027 39.9964 10.1634 39.7182 10.8203C39.446 11.4773 39.3098 12.2644 39.3098 13.1818C39.3098 14.111 39.446 14.91 39.7182 15.5788C39.9905 16.2417 40.3722 16.7537 40.8635 17.1147C41.3606 17.4698 41.9436 17.6474 42.6124 17.6474C43.0859 17.6474 43.5091 17.5586 43.8819 17.381C44.2607 17.1976 44.5774 16.9342 44.8319 16.5909C45.0864 16.2476 45.2609 15.8304 45.3556 15.3391H48.4274C48.3504 16.3039 48.0663 17.1591 47.5751 17.9048C47.0839 18.6446 46.4151 19.2247 45.5687 19.6449C44.7224 20.0592 43.728 20.2663 42.5858 20.2663ZM57.0145 20.2663C55.6828 20.2663 54.5287 19.9734 53.5521 19.3874C52.5756 18.8015 51.818 17.9818 51.2794 16.9283C50.7467 15.8748 50.4804 14.6437 50.4804 13.2351C50.4804 11.8265 50.7467 10.5924 51.2794 9.53303C51.818 8.4736 52.5756 7.65092 53.5521 7.06499C54.5287 6.47905 55.6828 6.18608 57.0145 6.18608C58.3461 6.18608 59.5003 6.47905 60.4768 7.06499C61.4534 7.65092 62.208 8.4736 62.7407 9.53303C63.2793 10.5924 63.5486 11.8265 63.5486 13.2351C63.5486 14.6437 63.2793 15.8748 62.7407 16.9283C62.208 17.9818 61.4534 18.8015 60.4768 19.3874C59.5003 19.9734 58.3461 20.2663 57.0145 20.2663ZM57.0322 17.6918C57.7543 17.6918 58.358 17.4935 58.8433 17.0969C59.3286 16.6945 59.6897 16.1559 59.9264 15.4812C60.1691 14.8065 60.2904 14.0548 60.2904 13.2262C60.2904 12.3917 60.1691 11.6371 59.9264 10.9624C59.6897 10.2817 59.3286 9.74018 58.8433 9.33771C58.358 8.93525 57.7543 8.73402 57.0322 8.73402C56.2924 8.73402 55.6769 8.93525 55.1856 9.33771C54.7003 9.74018 54.3363 10.2817 54.0937 10.9624C53.8569 11.6371 53.7385 12.3917 53.7385 13.2262C53.7385 14.0548 53.8569 14.8065 54.0937 15.4812C54.3363 16.1559 54.7003 16.6945 55.1856 17.0969C55.6769 17.4935 56.2924 17.6918 57.0322 17.6918ZM77.9928 6.36364L73.1366 20H69.5855L64.7293 6.36364H68.1562L71.29 16.4933H71.4321L74.5748 6.36364H77.9928ZM85.7898 20.2663C84.4226 20.2663 83.2418 19.9822 82.2475 19.4141C81.2591 18.84 80.4986 18.0291 79.9659 16.9815C79.4332 15.928 79.1669 14.6881 79.1669 13.2617C79.1669 11.859 79.4332 10.628 79.9659 9.56854C80.5045 8.5032 81.2562 7.6746 82.2209 7.08274C83.1856 6.48497 84.319 6.18608 85.6211 6.18608C86.4615 6.18608 87.2546 6.32221 88.0004 6.59446C88.752 6.86079 89.4149 7.27509 89.989 7.83736C90.569 8.39962 91.0247 9.11577 91.3562 9.9858C91.6876 10.8499 91.8533 11.8797 91.8533 13.0753V14.0607H80.6761V11.8945H88.7727C88.7668 11.279 88.6336 10.7315 88.3732 10.2521C88.1128 9.76681 87.7488 9.38506 87.2812 9.10689C86.8196 8.82872 86.281 8.68963 85.6655 8.68963C85.0085 8.68963 84.4315 8.84943 83.9343 9.16903C83.4371 9.48272 83.0495 9.89702 82.7713 10.4119C82.4991 10.9209 82.36 11.4802 82.354 12.0898V13.9808C82.354 14.7739 82.4991 15.4545 82.7891 16.0227C83.0791 16.585 83.4845 17.017 84.0053 17.3189C84.5262 17.6148 85.1358 17.7628 85.8342 17.7628C86.3017 17.7628 86.7249 17.6977 87.1037 17.5675C87.4825 17.4313 87.811 17.2331 88.0891 16.9727C88.3673 16.7122 88.5774 16.3897 88.7195 16.005L91.7202 16.3423C91.5308 17.1354 91.1697 17.8279 90.6371 18.4197C90.1103 19.0057 89.4356 19.4614 88.6129 19.7869C87.7902 20.1065 86.8492 20.2663 85.7898 20.2663ZM94.5722 20V6.36364H97.6883V8.63636H97.8303C98.0789 7.8492 98.5051 7.24254 99.1088 6.81641C99.7184 6.38435 100.414 6.16832 101.195 6.16832C101.373 6.16832 101.571 6.1772 101.79 6.19496C102.015 6.20679 102.201 6.22751 102.349 6.2571V9.21342C102.213 9.16607 101.997 9.12464 101.701 9.08913C101.411 9.0477 101.13 9.02699 100.858 9.02699C100.272 9.02699 99.745 9.15424 99.2774 9.40874C98.8158 9.65731 98.4518 10.0036 98.1855 10.4474C97.9191 10.8913 97.786 11.4033 97.786 11.9833V20H94.5722ZM104.484 20V6.36364H107.698V20H104.484ZM106.1 4.42827C105.591 4.42827 105.153 4.25959 104.786 3.92223C104.419 3.57895 104.236 3.16761 104.236 2.68821C104.236 2.20289 104.419 1.79155 104.786 1.45419C105.153 1.11091 105.591 0.939275 106.1 0.939275C106.615 0.939275 107.053 1.11091 107.414 1.45419C107.781 1.79155 107.964 2.20289 107.964 2.68821C107.964 3.16761 107.781 3.57895 107.414 3.92223C107.053 4.25959 106.615 4.42827 106.1 4.42827ZM117.812 6.36364V8.84943H109.973V6.36364H117.812ZM111.908 3.09659H115.122V15.8984C115.122 16.3305 115.187 16.6619 115.317 16.8928C115.454 17.1177 115.631 17.2715 115.85 17.3544C116.069 17.4373 116.312 17.4787 116.578 17.4787C116.779 17.4787 116.963 17.4639 117.129 17.4343C117.3 17.4047 117.43 17.3781 117.519 17.3544L118.061 19.8668C117.889 19.926 117.643 19.9911 117.324 20.0621C117.01 20.1332 116.625 20.1746 116.17 20.1864C115.365 20.2101 114.64 20.0888 113.995 19.8224C113.35 19.5502 112.838 19.13 112.459 18.5618C112.086 17.9936 111.902 17.2834 111.908 16.4311V3.09659Z" fill="#4F4F4F"/>
</svg>
